PathFileType	4	(X/Y/Z)	C:/Users/opensim2020/Desktop/walking_exp_matlab/subject06_walking12_straigt_04.trc																																																																																																																																														
DataRate	CameraRate	NumFrames	NumMarkers	Units	OrigDataRate	OrigDataStartFrame	OrigNumFrames																																																																																																																																										
100	100	5	48	mm	100	2856	181																																																																																																																																										
Frame#	Time	LFHD			RFHD			LBHD			RBHD			C7			T10			CLAV			STRN			RBAK			LSHO			LUPA			LELB			LFRM			LWRA			LWRB			LFIN			RSHO			RUPA			RELB			RFRM			RWRA			RWRB			RFIN			LASI			RASI			LPSI			RPSI			LTHI			LKNE			LTIB			LANK			LHEE			LTOE			RTHI			RKNE			RTIB			RANK			RHEE			RTOE			*39			*40			*41			*42			*43			*44			*45			*46			*47		
		X1	Y1	Z1	X2	Y2	Z2	X3	Y3	Z3	X4	Y4	Z4	X5	Y5	Z5	X6	Y6	Z6	X7	Y7	Z7	X8	Y8	Z8	X9	Y9	Z9	X10	Y10	Z10	X11	Y11	Z11	X12	Y12	Z12	X13	Y13	Z13	X14	Y14	Z14	X15	Y15	Z15	X16	Y16	Z16	X17	Y17	Z17	X18	Y18	Z18	X19	Y19	Z19	X20	Y20	Z20	X21	Y21	Z21	X22	Y22	Z22	X23	Y23	Z23	X24	Y24	Z24	X25	Y25	Z25	X26	Y26	Z26	X27	Y27	Z27	X28	Y28	Z28	X29	Y29	Z29	X30	Y30	Z30	X31	Y31	Z31	X32	Y32	Z32	X33	Y33	Z33	X34	Y34	Z34	X35	Y35	Z35	X36	Y36	Z36	X37	Y37	Z37	X38	Y38	Z38	X39	Y39	Z39	X40	Y40	Z40	X41	Y41	Z41	X42	Y42	Z42	X43	Y43	Z43	X44	Y44	Z44	X45	Y45	Z45	X46	Y46	Z46	X47	Y47	Z47	X48	Y48	Z48
																																																																																																																																																	
91	0.9	-172.96805	1655.1853	-1512.95276	-176.43967	1643.17065	-1381.17896	-305.17807	1597.2572	-1516.72144	-307.33014	1591.53809	-1387.64832	-305.31381	1440.5625	-1454.40857	-334.96768	1110.77917	-1439.35144	-194.34305	1365.05164	-1455.31079	-152.21167	1191.0929	-1456.41382	-374.18097	1272.2821	-1365.57495	-256.71173	1392.84619	-1615.96301	-310.04095	1198.36987	-1680.79626	-348.44626	1091.99854	-1685.63892	-371.00266	942.56592	-1701.62695	-355.96024	816.53662	-1647.74487	-408.36371	829.48566	-1694.36292	-400.0076	738.62872	-1683.70874	-235.92365	1401.14282	-1294.04321	-250.40366	1203.88562	-1199.44934	-218.21219	1087.18958	-1186.73462	-150.31136	989.87579	-1180.80627	-33.87446	908.02887	-1233.14697	-74.6609	876.59448	-1190.7915	-2.84267	836.3172	-1196.7959	-141.806	963.16144	-1549.70752	-158.28722	954.90424	-1331.76978	-304.44058	983.1991	-1531.85938	-308.46814	978.2027	-1364.01733	-150.49944	652.65125	-1619.53772	-114.44055	494.99042	-1589.3158	-115.00797	236.95143	-1576.55933	-99.63456	68.08498	-1529.25	-137.75024	53.12783	-1482.80811	46.37442	44.16965	-1522.64758	-239.72475	617.74518	-1276.02417	-248.04529	490.01736	-1285.10242	-443.64511	306.31744	-1299.63452	-574.15808	176.03693	-1348.23328	-611.59998	187.17662	-1397.13782	-500.74026	40.91606	-1354.65906	-275.71512	1690.81653	-1455.86963	NaN	NaN	NaN	NaN	NaN	NaN	NaN	NaN	NaN	NaN	NaN	NaN	NaN	NaN	NaN	NaN	NaN	NaN	NaN	NaN	NaN	NaN	NaN	NaN
92	0.91	-161.93085	1655.77747	-1514.29211	-165.65741	1644.03967	-1382.47461	-294.35846	1598.19653	-1518.18445	-296.84207	1592.79321	-1388.98853	-294.62994	1441.06653	-1455.64893	-323.66306	1111.6864	-1440.82434	-183.43263	1366.07629	-1456.12439	-140.71196	1192.36121	-1457.07434	-363.36304	1272.86279	-1366.7854	-245.09848	1393.87793	-1616.92847	-296.27704	1198.84753	-1682.02063	-333.60809	1092.19434	-1687.01697	-354.59323	942.58667	-1703.28833	-338.59482	816.47504	-1649.81543	-390.83408	829.15808	-1696.36792	-382.03409	738.27527	-1685.55566	-225.96027	1402.31763	-1295.25586	-241.07848	1205.20081	-1200.80249	-210.37814	1087.91956	-1188.92834	-144.30664	989.03448	-1182.57397	-29.49206	904.22894	-1234.44226	-71.42514	873.91797	-1192.13733	-0.27434	831.81232	-1197.87805	-130.3015	964.69421	-1551.57703	-147.34378	955.68182	-1333.59436	-292.71756	984.64941	-1533.53748	-297.40363	978.57404	-1365.92615	-140.54071	653.5675	-1621.03125	-107.02541	495.22397	-1590.68958	-110.98997	237.01138	-1577.03796	-98.8027	68.22251	-1529.0061	-137.39105	53.4577	-1482.82886	47.0717	43.51822	-1522.73022	-223.87816	617.71893	-1275.37085	-229.03004	489.71625	-1283.14905	-425.64539	310.89539	-1299.09924	-560.02893	185.26207	-1348.59253	-596.21527	199.03102	-1397.75012	-495.17023	44.64759	-1354.12622	-264.76059	1691.78442	-1457.47498	NaN	NaN	NaN	NaN	NaN	NaN	NaN	NaN	NaN	NaN	NaN	NaN	NaN	NaN	NaN	NaN	NaN	NaN	NaN	NaN	NaN	NaN	NaN	NaN
93	0.92	-150.88013	1656.4469	-1515.57068	-155.11188	1644.95251	-1383.66577	-283.60962	1599.0094	-1519.53662	-286.25922	1593.88	-1390.36377	-283.94339	1441.67249	-1457.05139	-312.42941	1112.45361	-1442.42468	-172.45139	1367.04517	-1456.88892	-129.40523	1193.39612	-1457.67798	-352.70352	1273.38647	-1368.0824	-233.48799	1394.85083	-1617.91125	-282.48831	1199.27747	-1683.23425	-318.60754	1092.31262	-1688.47473	-337.78064	942.46936	-1705.08032	-320.16583	816.54767	-1651.68713	-372.78226	828.72034	-1698.33057	-363.177	737.79053	-1687.63245	-216.06544	1403.31506	-1296.36548	-231.79092	1206.22559	-1202.09326	-202.72043	1088.36218	-1190.89539	-138.6442	987.98651	-1184.23328	-25.66642	900.21295	-1235.70044	-68.30887	870.96704	-1193.25867	1.90769	826.94727	-1199.17407	-118.97072	965.77258	-1553.28479	-136.90607	956.12469	-1335.12695	-281.35971	985.94537	-1535.20447	-286.80283	978.77087	-1367.78394	-131.86975	653.98718	-1622.37268	-100.64632	494.97775	-1592.0686	-107.57611	236.8194	-1577.56641	-98.13998	68.20186	-1528.78979	-137.00047	53.82137	-1482.75464	47.83062	42.96486	-1522.33655	-208.44373	617.59387	-1274.7157	-209.86685	489.5015	-1281.66479	-406.61505	314.89572	-1298.71399	-544.58856	194.43471	-1348.90662	-579.23608	210.56546	-1398.229	-488.7598	48.6601	-1353.49133	-253.97038	1692.70129	-1459.01221	NaN	NaN	NaN	NaN	NaN	NaN	NaN	NaN	NaN	NaN	NaN	NaN	NaN	NaN	NaN	NaN	NaN	NaN	NaN	NaN	NaN	NaN	NaN	NaN
94	0.93	-140.28392	1657.1311	-1516.6488	-144.64336	1645.95874	-1384.80261	-272.8671	1599.76062	-1520.87549	-275.81497	1594.89709	-1391.69995	-273.1283	1442.3634	-1458.19336	-301.341	1113.1438	-1444.10046	-161.64532	1367.91785	-1457.60425	-118.3168	1194.25769	-1458.32715	-342.18649	1273.89917	-1369.72852	-221.92456	1395.75366	-1618.94446	-268.93472	1199.68115	-1684.44397	-303.60834	1092.26038	-1690.09143	-320.80032	942.25677	-1706.99268	-301.23001	816.46075	-1653.97693	-354.27216	827.99915	-1700.3186	-343.61087	737.2099	-1689.91479	-206.08397	1404.06738	-1297.33923	-222.71085	1206.90723	-1203.2063	-195.39079	1088.47107	-1192.61658	-133.28265	986.61487	-1185.8009	-21.98521	895.93585	-1236.83899	-65.36328	867.97852	-1194.09692	3.61793	821.82135	-1200.42871	-107.94946	966.42181	-1554.71509	-126.50279	956.42401	-1336.2948	-270.24969	986.8847	-1537.07483	-276.5621	978.81348	-1369.70996	-124.31304	654.0376	-1623.49609	-94.75541	494.59418	-1593.31506	-104.67077	236.58624	-1577.97693	-97.45105	68.15999	-1528.52734	-136.9034	54.29514	-1482.60364	48.50017	42.445	-1522.08325	-193.17879	617.56824	-1274.48779	-190.63309	489.50201	-1280.70508	-387.12939	318.72974	-1298.21277	-527.85608	202.78079	-1349.20459	-561.03748	221.10506	-1398.66736	-482.07175	52.35493	-1352.88171	-243.32526	1693.58203	-1460.45947	NaN	NaN	NaN	NaN	NaN	NaN	NaN	NaN	NaN	NaN	NaN	NaN	NaN	NaN	NaN	NaN	NaN	NaN	NaN	NaN	NaN	NaN	NaN	NaN
95	0.94	-129.55769	1658.02185	-1517.78906	-134.23335	1647.01794	-1385.87573	-262.06207	1600.50525	-1522.00391	-265.35431	1595.85352	-1392.83264	-262.30594	1443.22217	-1459.38464	-290.46741	1113.77075	-1445.78467	-150.76088	1368.89233	-1458.28979	-107.4117	1195.03857	-1458.99792	-331.75595	1274.43542	-1371.40466	-210.33705	1396.54004	-1619.95764	-254.7946	1199.84827	-1685.9585	-288.46777	1092.06897	-1691.76636	-303.51285	941.83966	-1708.89514	-281.89188	816.32996	-1656.24963	-335.23572	827.21161	-1702.33704	-322.80936	736.76459	-1692.81189	-196.01434	1404.69128	-1298.02063	-213.85353	1207.28503	-1204.22119	-188.21309	1088.23767	-1194.05444	-128.12122	984.97992	-1187.25989	-18.63113	891.47943	-1237.83081	-63.00632	864.61591	-1195.10925	4.65766	816.48608	-1201.57788	-97.18622	966.80707	-1555.90564	-116.40934	956.65778	-1337.22485	-259.45923	987.74408	-1538.80701	-266.5762	978.79114	-1371.55151	-117.15102	654.00421	-1624.54553	-88.83649	494.2345	-1594.35315	-102.4665	236.40802	-1578.26001	-96.86801	68.10466	-1528.26575	-136.18015	54.1841	-1482.58459	48.9396	42.09916	-1522.10461	-178.10144	617.70221	-1274.59753	-171.43987	490.07471	-1280.20972	-366.83084	322.0892	-1297.7561	-510.26764	210.19533	-1349.58215	-541.60864	230.1613	-1399.25854	-472.95267	56.70128	-1351.79395	-232.86476	1694.45569	-1461.78284	NaN	NaN	NaN	NaN	NaN	NaN	NaN	NaN	NaN	NaN	NaN	NaN	NaN	NaN	NaN	NaN	NaN	NaN	NaN	NaN	NaN	NaN	NaN	NaN
